<?xml version="1.0" standalone="no"?>
<!DOCTYPE svg PUBLIC "-//W3C//DTD SVG 20010904//EN"
 "http://www.w3.org/TR/2001/REC-SVG-20010904/DTD/svg10.dtd">
<svg version="1.0" xmlns="http://www.w3.org/2000/svg"
 width="133.000000pt" height="133.000000pt" viewBox="0 0 133.000000 133.000000"
 preserveAspectRatio="xMidYMid meet">
<metadata>
Created by potrace 1.10, written by Peter Selinger 2001-2011
</metadata>
<g transform="translate(0.000000,133.000000) scale(0.100000,-0.100000)"
fill="#000000" stroke="none">
<path d="M750 1059 c0 -8 28 -29 63 -46 138 -68 242 -172 310 -310 43 -86 61
-84 55 6 -14 189 -166 342 -357 358 -58 5 -71 3 -71 -8z"/>
<path d="M594 1017 c-55 -32 -75 -56 -72 -84 3 -27 6 -28 73 -36 214 -23 392
-203 413 -417 l7 -65 35 0 c30 0 38 6 64 48 29 47 29 50 18 103 -42 202 -228
395 -432 449 -66 18 -79 18 -106 2z"/>
<path d="M420 973 c-117 -142 -134 -363 -39 -529 34 -60 129 -153 184 -182
144 -73 332 -69 467 11 63 37 94 73 79 91 -11 13 -20 9 -64 -25 -83 -62 -146
-83 -257 -83 -105 1 -151 14 -235 67 l-50 32 30 3 c17 2 38 11 48 19 23 21 22
75 -1 96 -41 38 -112 6 -112 -50 l0 -28 -20 25 c-35 44 -68 124 -81 193 -21
112 14 239 92 338 21 27 25 39 17 47 -18 18 -24 15 -58 -25z"/>
<path d="M481 842 c-56 -28 -76 -63 -76 -137 0 -57 3 -67 29 -94 19 -20 51
-37 85 -47 73 -21 102 -37 125 -68 24 -32 26 -105 3 -139 -19 -30 -11 -40 48
-56 59 -16 62 -15 79 36 52 153 -29 296 -190 338 -67 17 -72 21 -57 43 28 43
171 -5 238 -80 60 -66 80 -120 79 -213 -1 -44 -3 -89 -5 -100 -5 -27 31 -32
87 -10 42 16 44 19 46 58 5 129 -15 209 -74 297 -96 144 -304 230 -417 172z"/>
</g>
</svg>
